<svg width="512" height="512" viewBox="0 0 512 512" fill="none" xmlns="http://www.w3.org/2000/svg">
<circle cx="256" cy="256" r="256" fill="#E6FAF8"/>
<path d="M289.513 237.294C305.622 223.876 312.761 144.576 319.734 116.071C326.708 87.5665 355.548 89.0123 355.548 89.0123C355.548 89.0123 348.061 102.135 351.115 111.928C354.169 121.721 375.09 130.474 375.09 130.474L370.578 142.454C370.578 142.454 361.155 141.241 355.548 152.536C349.941 163.831 359.152 275.672 359.152 275.672C359.152 275.672 325.453 342.612 325.453 370.875C325.453 399.138 338.736 422.824 338.736 422.824H320.096C320.096 422.824 292.751 390.053 287.143 373.674C281.535 357.296 283.778 340.918 283.778 340.918C283.778 340.918 254.055 339.224 227.699 340.918C201.342 342.612 183.765 365.429 180.593 378.193C177.421 390.956 176.107 422.824 176.107 422.824H161.368C152.398 394.945 145.273 384.952 149.138 370.875C159.844 331.882 157.741 309.766 155.262 299.916C152.783 290.065 136 281.468 136 281.468C144.221 264.6 152.613 256.494 188.712 255.649C224.81 254.803 273.403 250.713 289.513 237.294Z" fill="#EC4815"/>
<path d="M194.645 368.617C194.645 368.617 198.381 404.526 218.233 422.824H235.245C218.233 402.811 216.378 350.646 216.378 350.646C207.725 353.571 195.745 364.046 194.645 368.617Z" fill="#EC4815"/>
</svg>
