<svg xmlns="http://www.w3.org/2000/svg" viewBox="0 0 955.83 549.62"><defs><linearGradient id="linear-gradient" x1="421.23" y1="374.35" x2="562.58" y2="374.35" gradientUnits="userSpaceOnUse"><stop offset="0" stop-color="#2e51ff"/><stop offset=".19" stop-color="#3b71ff"/><stop offset=".24" stop-color="#4e7afc"/><stop offset=".33" stop-color="#6584f9"/><stop offset=".38" stop-color="#6d88f8"/><stop offset=".47" stop-color="#5372f3"/><stop offset=".63" stop-color="#2f53eb"/><stop offset=".77" stop-color="#153ce5"/><stop offset=".9" stop-color="#062fe2"/><stop offset="1" stop-color="#002ae1"/></linearGradient><style>.cls-4{font-size:18px}.cls-23,.cls-4{fill:#fff}.cls-3{letter-spacing:.02em}.cls-4{font-family:Montserrat-Medium,Montserrat;font-weight:500}.cls-7{letter-spacing:0}.cls-16{letter-spacing:.02em}.cls-20,.cls-21,.cls-22{fill:none;stroke:#fff}.cls-20,.cls-21{stroke-linecap:round;stroke-linejoin:round;stroke-width:3px}.cls-21{stroke-dasharray:.95 9.55}.cls-22,.cls-35{stroke-miterlimit:10}.cls-22{stroke-width:2px}.cls-25{fill:#5294cf}.cls-26{fill:#2d72b8}.cls-28{fill:#353535}.cls-30{fill:#f2b0a9}.cls-31{fill:#8c3123}.cls-35{fill:#624a1e;stroke:#d9a741;stroke-width:6.58px}</style></defs><g id="Layer_2" data-name="Layer 2"><g id="solutions_-_dark_copy" data-name="solutions - dark copy"><text transform="translate(457.13 15.3)" letter-spacing=".02em" font-family="Montserrat-ExtraBold,Montserrat" font-weight="800" fill="#fff" font-size="18">FILE</text><text transform="translate(11.26 520.79)" letter-spacing=".02em" font-family="Montserrat-ExtraBold,Montserrat" font-weight="800" fill="#fff" font-size="18">S<tspan class="cls-3" x="11.97" y="0">3 BUCKET</tspan></text><text class="cls-4" transform="translate(8.7 193.12)"><tspan letter-spacing="-.01em">F</tspan><tspan x="11.25" y="0">ile d</tspan><tspan x="49.43" y="0" letter-spacing="-.01em">r</tspan><tspan class="cls-7" x="56.59" y="0">opped</tspan></text><text class="cls-4" transform="translate(237.19 520.79)"><tspan letter-spacing="0">L<tspan class="cls-7" x="10.75" y="0">ambda</tspan></tspan><tspan x="-5.09" y="24">t</tspan><tspan x="2.36" y="24" letter-spacing="-.01em">r</tspan><tspan x="9.61" y="24">igge</tspan><tspan x="50.49" y="24" letter-spacing="-.01em">r</tspan><tspan x="57.65" y="24">ed</tspan></text><text class="cls-4" transform="translate(681.47 520.79)">Data<tspan x="-26.78" y="24">Suppo</tspan><tspan x="32.56" y="24" letter-spacing=".01em">r</tspan><tspan x="40.21" y="24" letter-spacing="-.02em">t</tspan><tspan x="47.34" y="24" letter-spacing="0">ed</tspan></text><text transform="translate(863.02 520.79)" letter-spacing=".01em" font-family="Montserrat-ExtraBold,Montserrat" font-weight="800" fill="#fff" font-size="18">D<tspan x="15.05" y="0" letter-spacing="-.02em">AT</tspan><tspan class="cls-16" x="40.09" y="0">A</tspan><tspan letter-spacing="-.02em"><tspan x="-38.22" y="24">W</tspan><tspan class="cls-3" x="-17.25" y="24">AREHOUSE</tspan></tspan></text><text transform="translate(440.34 520.79)" letter-spacing=".01em" font-family="Montserrat-ExtraBold,Montserrat" font-weight="800" fill="#fff" font-size="18">C<tspan class="cls-3" x="13.37" y="0">ONTENT</tspan><tspan class="cls-16"><tspan x="-27.15" y="24">TRANSPO</tspan><tspan x="68.91" y="24">R</tspan><tspan x="82.41" y="24">TED</tspan></tspan></text><path class="cls-20" d="M277.66 486.79v-.5"/><path class="cls-21" d="M277.66 476.74V397.5"/><path class="cls-20" d="M277.66 392.73v-.5M703.15 486.79v-.5"/><path class="cls-21" d="M703.15 476.74V397.5"/><path class="cls-20" d="M703.15 392.73v-.5"/><path class="cls-22" d="M66.49 488.22v-35.36"/><path class="cls-23" d="M59.99 487.22h13v2h-13z"/><path class="cls-22" d="M489.76 488.22v-37.04"/><path class="cls-23" d="M483.26 487.22h13v2h-13z"/><path class="cls-22" d="M892.6 488.22v-30.34"/><path class="cls-23" d="M886.1 487.22h13v2h-13z"/><path stroke-dasharray="1 10" stroke-linecap="round" stroke-linejoin="round" stroke-width="3" fill="none" stroke="#fff" d="M361.81 131.26H68.46v32.23"/><path class="cls-25" d="M947 429.27c0 9.62-25.1 17.42-56.08 17.42s-56.07-7.8-56.07-17.42V314.88c0-9.62 25.1-17.42 56.07-17.42s56.08 7.8 56.08 17.42z"/><ellipse class="cls-26" cx="890.93" cy="314.88" rx="56.08" ry="17.42"/><path class="cls-26" d="M116.05 427.69c0 9.16-20.29 16.59-45.32 16.59s-45.33-7.43-45.33-16.59L0 318.74c0-9.16 31.67-16.59 70.73-16.59s70.72 7.43 70.72 16.59z"/><ellipse class="cls-25" cx="70.73" cy="318.74" rx="70.73" ry="16.59"/><ellipse cx="70.73" cy="317.49" rx="61.3" ry="12.28" fill="#1f5b98"/><path class="cls-28" d="M293.95 367.02l-30-.05v-14.25l30 14.3z"/><path class="cls-28" d="M293.95 367.02l-30-.05v14.2l30-14.15zM722.46 367.02l-30-.05v-14.25l30 14.3z"/><path class="cls-28" d="M722.46 367.02l-30-.05v14.2l30-14.15z"/><path fill="url(#linear-gradient)" d="M452.49 301.58h36.97l46.33 116.51 19.81-5.72 6.98 20.79-43.12 13.95-27.77-69.35-41.72 61.26h-28.74l58.46-90.42-8.23-24.97h-18.97v-22.05z"/><path class="cls-30" d="M489.46 301.58l10.05 9.07h-36.98l-10.04-9.07h36.97z"/><path class="cls-31" d="M462.53 332.69l-10.04-9.06v-22.05l10.04 9.07v22.04zM479.69 348.6l10.05 9.07-8.23-24.98-10.05-9.06 8.23 24.97z"/><path class="cls-31" d="M421.23 439.02l58.46-90.42 10.05 9.07-58.46 90.42-10.05-9.07zM519.46 447.11l-27.77-69.35 10.05 9.07 27.77 69.35-10.05-9.07z"/><path class="cls-30" d="M535.79 418.09l10.04 9.07 19.82-5.72-10.05-9.07-19.81 5.72z"/><path fill="#e05243" d="M462.53 310.65h36.98l46.32 116.51 19.82-5.72 6.97 20.79-43.11 13.95-27.77-69.35-41.72 61.26h-28.74l58.46-90.42-8.23-24.98h-18.98v-22.04z"/><path class="cls-28" d="M69.34 273.53l.05-30.01h14.25l-14.3 30.01z"/><path class="cls-28" d="M69.34 273.53l.05-30.01h-14.2l14.15 30.01z"/><path class="cls-20" d="M68.99 231.06v-.5"/><path stroke-dasharray="1.04 10.42" stroke-linecap="round" stroke-linejoin="round" stroke-width="3" fill="none" stroke="#fff" d="M68.99 220.14v-6.25"/><path class="cls-20" d="M68.99 208.68v-.5M368.27 152.77v-.5"/><path stroke-dasharray="1.02 10.2" stroke-linecap="round" stroke-linejoin="round" stroke-width="3" fill="none" stroke="#fff" d="M368.27 142.06v-28.57"/><path class="cls-20" d="M368.27 108.39v-.5"/><path class="cls-35" d="M553.75 74.44v150.7H399.71V43.18h117.21l36.83 31.26z"/><path fill="#d9a741" d="M515.03 41.58v34.46h40.61l-40.61-34.46z"/><path class="cls-35" d="M430.79 98.86h93.77M430.79 128.49h93.77M430.79 158.11h93.77M430.79 187.74h93.77"/></g></g></svg>